HIERARCHY
ROOT Pelvis
{
	OFFSET 0.000000 0.000000 0.000000
	CHANNELS 6 Xposition Yposition Zposition Xrotation Yrotation Zrotation
	JOINT LeftUpLeg_virtual
	{
		OFFSET 0.000000 0.000000 0.000000
		CHANNELS 3 Xrotation Yrotation Zrotation
		JOINT LeftUpLeg
		{
			OFFSET 18.735201 -5.666702 -4.541200
			CHANNELS 3 Xrotation Yrotation Zrotation
			JOINT LeftLeg
			{
				OFFSET -0.021200 -31.938179 0.493100
				CHANNELS 3 Xrotation Yrotation Zrotation
				JOINT LeftFoot
				{
					OFFSET 0.021200 -31.938179 -4.336299
					CHANNELS 3 Xrotation Yrotation Zrotation
					JOINT LeftToeBase
					{
						OFFSET 0.943001 -26.722000 15.023500
						CHANNELS 3 Xrotation Yrotation Zrotation
						End Site
						{
							OFFSET 0 0 0
						}
					}
				}
			}
		}
	}
	JOINT RightUpLeg_virtual
	{
		OFFSET 0.000000 0.000000 0.000000
		CHANNELS 3 Xrotation Yrotation Zrotation
		JOINT RightUpLeg
		{
			OFFSET -18.735201 -5.666702 -4.541200
			CHANNELS 3 Xrotation Yrotation Zrotation
			JOINT RightLeg
			{
				OFFSET 0.018946 -31.938133 0.493100
				CHANNELS 3 Xrotation Yrotation Zrotation
				JOINT RightFoot
				{
					OFFSET -0.018946 -31.938126 -4.336299
					CHANNELS 3 Xrotation Yrotation Zrotation
					JOINT RightToeBase
					{
						OFFSET -0.943001 -26.722004 15.023500
						CHANNELS 3 Xrotation Yrotation Zrotation
						End Site
						{
							OFFSET 0 0 0
						}
					}
				}
			}
		}
	}
	JOINT Hips_virtual
	{
		OFFSET 0.000000 0.000000 0.000000
		CHANNELS 3 Xrotation Yrotation Zrotation
		JOINT Hips
		{
			OFFSET -0.000000 -0.000000 -0.000000
			CHANNELS 3 Xrotation Yrotation Zrotation
			JOINT Spine
			{
				OFFSET 0.000000 10.199997 -0.299500
				CHANNELS 3 Xrotation Yrotation Zrotation
				JOINT Spine1
				{
					OFFSET 0.000000 11.900002 -1.516600
					CHANNELS 3 Xrotation Yrotation Zrotation
					JOINT Spine2
					{
						OFFSET 0.000000 13.600006 -2.842500
						CHANNELS 3 Xrotation Yrotation Zrotation
						JOINT Neck_virtual
						{
							OFFSET 0.000000 0.000000 0.000000
							CHANNELS 3 Xrotation Yrotation Zrotation
							JOINT Neck
							{
								OFFSET 0.000000 9.624100 -2.890100
								CHANNELS 3 Xrotation Yrotation Zrotation
								JOINT Head
								{
									OFFSET 0.000000 14.068802 -1.351900
									CHANNELS 3 Xrotation Yrotation Zrotation
									End Site
									{
										OFFSET 0 0 0
									}
								}
							}
						}
						JOINT LeftShoulder_virtual
						{
							OFFSET 0.000000 0.000000 0.000000
							CHANNELS 3 Xrotation Yrotation Zrotation
							JOINT LeftShoulder
							{
								OFFSET 15.263000 10.923401 -0.547700
								CHANNELS 3 Xrotation Yrotation Zrotation
								JOINT LeftArm
								{
									OFFSET 25.438599 -2.830597 -13.032500
									CHANNELS 3 Xrotation Yrotation Zrotation
									JOINT LeftForeArm
									{
										OFFSET 29.960503 0.000000 0.000000
										CHANNELS 3 Xrotation Yrotation Zrotation
										JOINT LeftHand
										{
											OFFSET 27.849251 0.000000 0.000000
											CHANNELS 3 Xrotation Yrotation Zrotation
											End Site
											{
												OFFSET 0 0 0
											}
										}
									}
								}
							}
						}
						JOINT RightShoulder_virtual
						{
							OFFSET 0.000000 0.000000 0.000000
							CHANNELS 3 Xrotation Yrotation Zrotation
							JOINT RightShoulder
							{
								OFFSET -15.263000 10.923401 -0.547700
								CHANNELS 3 Xrotation Yrotation Zrotation
								JOINT RightArm
								{
									OFFSET -25.438599 -2.830597 -13.032500
									CHANNELS 3 Xrotation Yrotation Zrotation
									JOINT RightForeArm
									{
										OFFSET -29.960503 0.000000 0.000000
										CHANNELS 3 Xrotation Yrotation Zrotation
										JOINT RightHand
										{
											OFFSET -27.849251 0.000000 0.000000
											CHANNELS 3 Xrotation Yrotation Zrotation
											End Site
											{
												OFFSET 0 0 0
											}
										}
									}
								}
							}
						}
					}
				}
			}
		}
	}
}
MOTION
Frames: 12
Frame Time: 0.03333333
2.572635 70.297234 62.536312 0.000000 0.000000 0.000000 -13.266506 -44.141419 -10.397648 -50.182872 -15.327359 27.084106 54.014792 -7.798572 13.244653 -0.219787 -15.068601 -18.263784 0.000000 0.000000 0.000000 -13.310826 -43.272684 -10.411099 -35.326230 15.483656 -42.785271 94.297865 2.470490 -3.644464 -3.848914 21.724626 1.726012 0.000000 0.000000 0.000000 -12.796625 -41.457544 -9.948159 -0.818613 0.082569 -0.079533 23.032235 0.601912 -8.633941 3.305715 3.728833 -0.287344 0.000000 0.000000 0.000000 3.391635 3.391864 1.836196 1.967987 1.529667 -2.409684 0.000000 0.000000 0.000000 7.074124 2.851697 2.740740 0.815606 -0.746236 -9.316246 -51.872777 4.452661 -45.139713 -154.843776 -61.401475 -146.137211 0.000000 0.000000 0.000000 -0.252385 3.512695 0.390497 7.463819 12.481720 2.242271 -53.180577 27.729074 77.855967 168.654391 59.327296 -164.863281 0.000000 0.000000 0.000000 
2.066658 70.582420 60.070724 0.000000 0.000000 0.000000 -12.233036 -44.998803 -8.989822 -43.079933 -13.486992 27.971815 41.676219 -10.128815 13.428604 0.664992 -13.770968 -20.890970 0.000000 0.000000 0.000000 -12.769190 -43.616516 -9.357105 -32.669420 14.756031 -43.144717 94.050100 2.493269 -1.749501 -15.021490 18.457517 3.545278 0.000000 0.000000 0.000000 -12.711201 -42.061241 -9.009795 -0.796577 0.063189 -0.065336 20.420526 3.060163 -6.969120 3.926785 4.454030 -1.007710 0.000000 0.000000 0.000000 4.104470 4.002423 1.115671 2.196051 1.667069 -2.651756 0.000000 0.000000 0.000000 7.714161 3.581422 2.111134 0.572012 -0.804684 -9.678118 -50.266593 3.826495 -46.249154 -156.999889 -60.805629 -148.218725 0.000000 0.000000 0.000000 0.786601 4.207578 -0.474319 7.411958 13.914210 1.077389 -55.230621 24.363135 80.309836 163.147415 61.537266 -160.624562 0.000000 0.000000 0.000000 
1.272308 71.165688 57.228462 0.000000 0.000000 0.000000 -10.301995 -44.675998 -6.979597 -38.916345 -11.615724 28.085700 31.320809 -11.620724 12.748022 2.058120 -12.308202 -21.721690 0.000000 0.000000 0.000000 -11.324531 -43.006020 -7.621471 -29.460143 12.667276 -42.308248 91.820972 1.904701 0.377328 -24.604071 14.905749 6.102621 0.000000 0.000000 0.000000 -11.516618 -42.055466 -7.302603 -0.775950 0.036615 -0.019113 17.946985 5.313490 -5.742208 4.586544 5.161810 -1.784781 0.000000 0.000000 0.000000 4.889033 4.671751 0.408934 2.159638 1.760753 -2.755248 0.000000 0.000000 0.000000 8.339629 4.260184 1.448479 0.178991 -0.806581 -9.753274 -49.509938 2.167775 -46.435932 -158.935592 -60.361961 -150.249067 0.000000 0.000000 0.000000 1.940283 4.948017 -1.358874 7.345439 14.526730 -0.764881 -56.775729 22.337732 81.619381 158.344262 63.169647 -156.914048 0.000000 0.000000 0.000000 
0.385543 72.135445 53.896496 0.000000 0.000000 0.000000 -8.319801 -43.836120 -5.041908 -38.725786 -9.817279 27.938604 27.212684 -11.988801 11.729318 2.186380 -10.937984 -21.257060 0.000000 0.000000 0.000000 -9.499180 -42.063197 -5.719970 -26.988664 9.423797 -40.173506 88.594274 0.516693 2.683204 -32.203816 11.204218 8.478442 0.000000 0.000000 0.000000 -9.629033 -41.730386 -5.337725 -0.777464 0.016938 0.020937 16.074258 7.021161 -5.067318 5.173331 5.668792 -2.382037 0.000000 0.000000 0.000000 5.576102 5.268846 -0.069635 1.893844 1.843822 -2.751316 0.000000 0.000000 0.000000 8.835066 4.776725 0.939272 -0.264157 -0.695285 -9.722344 -49.705913 0.109029 -45.894739 -160.241033 -60.394930 -151.713091 0.000000 0.000000 0.000000 2.915218 5.520154 -1.985088 7.185006 14.300354 -2.738538 -58.554713 21.507695 82.076191 155.472495 63.838247 -154.792044 0.000000 0.000000 0.000000 
-0.548969 73.624245 50.432816 0.000000 0.000000 0.000000 -6.524850 -42.885586 -3.477674 -41.651433 -7.964521 27.750840 29.986289 -12.109266 10.590877 0.732035 -10.526319 -20.843731 0.000000 0.000000 0.000000 -7.804276 -41.428977 -4.170828 -25.641833 5.645087 -37.099477 85.049693 -1.858009 5.293397 -37.371161 7.709865 9.705016 0.000000 0.000000 0.000000 -7.537710 -41.417919 -3.668298 -0.797642 0.005076 0.028764 14.993343 7.942358 -4.797740 5.570110 5.905425 -2.658986 0.000000 0.000000 0.000000 6.053782 5.621340 -0.255181 1.472804 1.921285 -2.693569 0.000000 0.000000 0.000000 9.235276 5.026111 0.675068 -0.657580 -0.566199 -9.861325 -50.717863 -1.697321 -45.159353 -160.649109 -61.106076 -152.318423 0.000000 0.000000 0.000000 3.484223 5.830080 -2.206611 6.982830 13.469644 -4.293929 -60.625565 21.436998 81.972939 154.953537 63.621696 -154.793137 0.000000 0.000000 0.000000 
-1.268337 75.622025 47.039024 0.000000 0.000000 0.000000 -4.995080 -42.421093 -2.441925 -45.755366 -5.591468 27.440737 38.131693 -12.507740 9.573663 -2.430813 -11.148958 -21.198143 0.000000 0.000000 0.000000 -6.215465 -41.592683 -3.155813 -25.731595 1.829275 -33.419211 81.094938 -4.988019 7.905691 -38.703386 5.002806 10.576423 0.000000 0.000000 0.000000 -5.441047 -41.714595 -2.489046 -0.811413 0.004069 -0.000454 14.543877 8.160912 -4.769527 5.740047 5.930099 -2.696877 0.000000 0.000000 0.000000 6.233353 5.714290 -0.206018 1.008773 1.994183 -2.596481 0.000000 0.000000 0.000000 9.435421 5.034632 0.630148 -0.935951 -0.448333 -10.104009 -52.232079 -2.982673 -44.675598 -160.143812 -62.324336 -152.036049 0.000000 0.000000 0.000000 3.729371 5.861147 -2.117901 6.726138 12.494994 -5.006545 -62.478240 21.830140 81.371739 156.321747 62.954885 -156.308196 0.000000 0.000000 0.000000 
-1.753423 78.111732 43.823257 0.000000 0.000000 0.000000 -3.468834 -43.195523 -1.826006 -48.901904 -2.493212 26.936191 48.095501 -13.225715 8.792156 -6.676083 -12.414498 -22.387574 0.000000 0.000000 0.000000 -4.516128 -42.754409 -2.549757 -27.308775 -1.259380 -29.374427 76.573674 -8.222019 9.941353 -35.663990 3.727221 12.427853 0.000000 0.000000 0.000000 -3.378965 -42.804895 -1.734126 -0.829169 0.019517 -0.041686 14.411551 7.887746 -4.832756 5.772943 5.845381 -2.664778 0.000000 0.000000 0.000000 6.074766 5.610224 -0.033260 0.593447 2.045790 -2.474947 0.000000 0.000000 0.000000 9.414892 4.880703 0.684977 -1.079848 -0.316834 -10.257254 -54.355817 -3.611704 -44.254220 -159.196328 -63.438647 -151.362224 0.000000 0.000000 0.000000 3.715830 5.683737 -1.913024 6.499866 11.886205 -4.683009 -63.924055 22.572568 80.383158 158.862345 62.130071 -158.592348 0.000000 0.000000 0.000000 
-1.927109 80.874252 40.940304 0.000000 0.000000 0.000000 -1.679501 -45.230455 -1.432659 -49.866508 1.148244 25.895168 56.859757 -13.953816 8.295500 -10.387219 -13.615987 -23.724654 0.000000 0.000000 0.000000 -2.636787 -45.054103 -2.175677 -29.452592 -3.530960 -25.064673 71.134747 -11.222166 11.210778 -28.786358 4.093609 15.491267 0.000000 0.000000 0.000000 -1.286482 -44.862745 -1.215374 -0.844527 0.028180 -0.078319 14.229623 7.360015 -4.911791 5.681143 5.751722 -2.701936 0.000000 0.000000 0.000000 5.649237 5.358765 0.105955 0.298245 2.061128 -2.328033 0.000000 0.000000 0.000000 9.213701 4.612072 0.710808 -1.127245 -0.217228 -10.100063 -57.017220 -3.498462 -43.618237 -158.436975 -63.845432 -150.932291 0.000000 0.000000 0.000000 3.568757 5.411582 -1.790735 6.329041 11.784562 -3.676873 -64.841629 23.717140 79.172274 162.016868 61.210639 -161.174228 0.000000 0.000000 0.000000 
-1.785349 83.520111 38.194519 0.000000 0.000000 0.000000 0.288680 -48.404700 -1.107637 -48.591878 4.970160 24.289022 62.948239 -13.944781 7.986939 -13.212025 -13.633755 -23.558034 0.000000 0.000000 0.000000 -0.587103 -48.169612 -1.795181 -31.279333 -5.284476 -21.009758 65.390469 -14.063264 11.781296 -21.256744 5.371299 18.179471 0.000000 0.000000 0.000000 0.881313 -47.723109 -0.709888 -0.852334 0.031497 -0.084533 13.733232 6.828990 -5.013816 5.525131 5.664554 -2.886194 0.000000 0.000000 0.000000 5.065829 5.070195 0.136039 0.170309 2.027972 -2.148223 0.000000 0.000000 0.000000 8.848196 4.302049 0.618318 -1.125029 -0.047411 -9.483889 -59.943550 -2.885617 -42.659613 -158.090288 -63.555525 -150.892553 0.000000 0.000000 0.000000 3.450562 5.120364 -1.847981 6.198197 12.035052 -2.330235 -65.352944 25.162313 78.034884 165.293433 60.253224 -163.587238 0.000000 0.000000 0.000000 
-1.431741 85.617836 35.461777 0.000000 0.000000 0.000000 2.301423 -52.107616 -0.727561 -45.695188 8.103179 22.173234 65.800219 -12.961861 7.743590 -15.302986 -12.281834 -21.581991 0.000000 0.000000 0.000000 1.460881 -51.547680 -1.247890 -32.209147 -6.249159 -18.035429 60.823162 -16.875579 11.721265 -15.537951 6.411163 18.957026 0.000000 0.000000 0.000000 2.923823 -50.836637 -0.133435 -0.863507 0.024611 -0.062141 12.883923 6.377420 -5.112818 5.399346 5.564902 -3.188545 0.000000 0.000000 0.000000 4.449549 4.772841 0.062580 0.216643 1.954067 -1.964492 0.000000 0.000000 0.000000 8.475299 3.957537 0.417722 -1.126691 0.167412 -8.659401 -62.820562 -2.039584 -41.575245 -157.659003 -63.131234 -150.700597 0.000000 0.000000 0.000000 3.381385 4.857143 -2.035599 6.123440 12.327259 -1.073135 -65.778239 26.706511 77.153325 168.251738 59.265633 -165.622839 0.000000 0.000000 0.000000 
-0.967211 86.919617 32.778255 0.000000 0.000000 0.000000 4.079008 -55.316357 -0.273199 -42.053806 9.968284 19.800011 65.793430 -11.300749 7.754065 -17.652614 -9.793625 -18.460193 0.000000 0.000000 0.000000 3.316144 -54.618243 -0.529144 -31.936237 -6.098638 -16.607509 58.165590 -19.534286 11.090653 -12.229286 6.431869 17.699395 0.000000 0.000000 0.000000 4.700957 -53.569502 0.525072 -0.867944 0.001785 -0.039736 11.809993 6.088474 -5.176635 5.249490 5.424549 -3.470581 0.000000 0.000000 0.000000 3.946727 4.480827 -0.052919 0.415448 1.848222 -1.806160 0.000000 0.000000 0.000000 8.157625 3.629083 0.199533 -1.152465 0.394797 -7.976267 -65.176185 -1.234864 -40.793042 -156.777922 -63.116064 -149.914893 0.000000 0.000000 0.000000 3.379465 4.619770 -2.225432 6.111712 12.322734 -0.154613 -66.031947 27.977527 76.431968 170.567910 58.349582 -167.138240 0.000000 0.000000 0.000000 
-0.626420 87.260826 30.182623 0.000000 0.000000 0.000000 5.260140 -57.387420 0.158043 -38.757318 10.337602 17.729467 64.001734 -9.377816 8.149770 -20.645490 -6.849977 -15.353630 0.000000 0.000000 0.000000 4.561238 -56.595187 0.117904 -30.554633 -4.353379 -16.864041 57.483138 -21.599227 9.842854 -11.236571 5.664341 15.425028 0.000000 0.000000 0.000000 5.708990 -55.222844 0.964096 -0.854584 -0.001240 -0.010679 10.774320 5.950244 -5.207101 5.103004 5.225989 -3.619700 0.000000 0.000000 0.000000 3.640493 4.212201 -0.128707 0.700447 1.729444 -1.699234 0.000000 0.000000 0.000000 7.920222 3.336585 0.087977 -1.207970 0.548225 -7.729165 -66.866131 -0.687484 -40.639663 -155.543133 -63.537411 -148.659545 0.000000 0.000000 0.000000 3.398376 4.396285 -2.301388 6.163091 11.958872 0.552825 -65.989477 28.702842 75.649789 172.133335 57.656919 -168.128194 0.000000 0.000000 0.000000 
